<svg xmlns="http://www.w3.org/2000/svg" width="121.911" height="94.683" viewBox="0 0 121.911 94.683"><defs><style>.a,.b{fill:#e6e6e6;}.a{opacity:0.45;}.c{opacity:0.08;}.d{fill:#24285b;}.e{fill:#536dfe;}.f{fill:#ffd200;}.g,.j,.k{fill:#fff;}.g{opacity:0.53;}.h{fill:#f4a28c;}.i{fill:#ce8172;opacity:0.31;}.j{opacity:0.46;}.l,.m,.o{fill:#a5a5a5;}.l{opacity:0.39;}.m{opacity:0.13;}.n{fill:none;stroke:#fff;stroke-linecap:round;stroke-linejoin:round;stroke-width:2px;}.p{opacity:0.12;}</style></defs><ellipse class="a" cx="30.926" cy="5.794" rx="30.926" ry="5.794" transform="translate(4.284 83.094)"/><rect class="b" width="91.706" height="64.694" transform="translate(19.378)"/><path class="c" d="M140.975,125.727s7.02,11.328-2.328,17.339-17.5,1.819-21.574,10.058l-16.257-.469L85.81,122.233a10.448,10.448,0,0,1,11.62,8.307c2.516,9.717,14.269,12.526,14.269,12.526l7.938-6.091,6.928,2.22,7.794-2.22,4.821-7.076Z" transform="translate(-66.432 -88.434)"/><circle class="d" cx="1.763" cy="1.763" r="1.763" transform="translate(25.012 4.039)"/><circle class="e" cx="1.763" cy="1.763" r="1.763" transform="translate(30.257 4.039)"/><circle class="f" cx="1.763" cy="1.763" r="1.763" transform="translate(35.202 4.039)"/><path class="e" d="M96.067,254.937a1.792,1.792,0,0,0,1.018,1.471c.922.329.918,1.318,0,1.33s-2.8-1.655-2.8-1.655l.541-1.7Z" transform="translate(-71.508 -167.671)"/><path class="e" d="M162.96,228.55a1.8,1.8,0,0,0,1.779-.188c.729-.649,1.6-.184,1.174.625s-2.8,1.671-2.8,1.671l-1.238-1.286Z" transform="translate(-112.014 -151.895)"/><path class="d" d="M72.12,190.118s.268,5.161,9.757,3.847c2.917-.4,5.261-.621,7.109-.725a12.522,12.522,0,0,1,9.328,3.426l9.272,8.783,2.284-2.368-9.885-11.46a14.145,14.145,0,0,0-9.841-4.885l-4.5-.276Z" transform="translate(-58.228 -126.967)"/><path class="d" d="M79.41,194.754l6.363,5.934a8.5,8.5,0,0,1,2.136,9.272L85.2,217.026l2.737,1.05,4.408-8.439A10.887,10.887,0,0,0,92,198.962l-4.067-6.712Z" transform="translate(-62.596 -130.437)"/><path class="e" d="M63.119,131.91a6.233,6.233,0,0,1,4.72-10.09h.369c5.979.164,11.809,22.84,28.049,27.649l-1.074,2.961S79.744,153.107,63.119,131.91Z" transform="translate(-52.031 -88.229)"/><path class="c" d="M63.119,131.91a6.233,6.233,0,0,1,4.72-10.09h.369c5.979.164,11.809,22.84,28.049,27.649l-1.074,2.961S79.744,153.107,63.119,131.91Z" transform="translate(-52.031 -88.229)"/><circle class="g" cx="10.755" cy="10.755" r="10.755" transform="translate(49.359 28.326)"/><rect class="f" width="27.729" height="3.887" transform="translate(33.062 67.83) rotate(-49.55)"/><rect class="c" width="27.729" height="3.887" transform="translate(33.062 67.83) rotate(-49.55)"/><rect class="d" width="6.604" height="22.079" transform="translate(45.426 51.267) rotate(40.45)"/><path class="f" d="M158,124.185a14.153,14.153,0,1,1,19.951-1.6A14.153,14.153,0,0,1,158,124.185Zm15.563-18.252a9.833,9.833,0,1,0,1.1,13.864,9.833,9.833,0,0,0-1.1-13.864Z" transform="translate(-106.713 -74.706)"/><path class="h" d="M49.823,103.662a12.205,12.205,0,0,1,1.166,3.061.99.99,0,0,1-.8,1.138,2.188,2.188,0,0,1-2.224-.8l-1.254-1.366a1.767,1.767,0,0,1-.044-2.044A1.9,1.9,0,0,1,49.823,103.662Z" transform="translate(-42.791 -76.839)"/><path class="h" d="M48.49,112.57l2.336,6.027,3.226-1.527L51.059,113.3Z" transform="translate(-44.066 -82.685)"/><path class="d" d="M48.859,100.849a8.11,8.11,0,0,1-1.723.6,1.639,1.639,0,0,1,.725,1.651,1.338,1.338,0,0,1-1.266,1.138l-.986-2.332a2,2,0,0,1,.212-2.048,7.212,7.212,0,0,1,.609-.717c.549-.561,1.723-.545,2.124-1.258a.477.477,0,0,1,.8,0,2.179,2.179,0,0,1,0,2.629,1.827,1.827,0,0,1-.5.337Z" transform="translate(-42.227 -73.753)"/><path class="h" d="M50.386,110.185s-.317-.689-.8-.4-.048,1.282.705,1.066Z" transform="translate(-44.6 -80.974)"/><path class="h" d="M56.34,107.73l.8.473a.317.317,0,0,1,0,.533l-.633.433Z" transform="translate(-48.771 -79.785)"/><path class="i" d="M53.547,115.388a7.666,7.666,0,0,1-1.447-.028,3,3,0,0,0,2.5,1.342Z" transform="translate(-46.23 -84.357)"/><path class="e" d="M50.245,122.962l.629-.489a12.181,12.181,0,0,1,9.5-2.46,9.849,9.849,0,0,1,6.107,3.546c4.913,6.059,4.408,22.984,4.408,22.984L57.366,150.2s-.821-3.542-5.361-8.791C45.581,133.969,47.06,127.69,50.245,122.962Z" transform="translate(-43.485 -87.051)"/><path class="c" d="M58.74,141.47s2.436,11.777,10.663,20.248l5.506-1.491Z" transform="translate(-50.209 -100.005)"/><path class="e" d="M58.379,129.271a6.239,6.239,0,0,1,6.079-9.336l.365.056c5.9.994,8.519,24.251,23.91,31.291l-1.471,2.785S71.895,152.577,58.379,129.271Z" transform="translate(-49.484 -87.069)"/><path class="j" d="M58.379,129.271a6.239,6.239,0,0,1,6.079-9.336l.365.056c5.9.994,8.519,24.251,23.91,31.291l-1.471,2.785S71.895,152.577,58.379,129.271Z" transform="translate(-49.484 -87.069)"/><path class="h" d="M132.94,199.751s2.4.886,3.839-.545a.914.914,0,0,0-.749-1.555l-2.1.232Z" transform="translate(-94.677 -133.67)"/><path class="h" d="M144.145,194.867s2.721-.4,2.476-2S144.041,191.825,144.145,194.867Z" transform="translate(-101.39 -130.281)"/><circle class="k" cx="11.019" cy="11.019" r="11.019" transform="translate(80.963 11.54)"/><path class="f" d="M267,66.8V77.815l10.791-2.244S276.284,66.723,267,66.8Z" transform="translate(-175.018 -55.255)"/><path class="d" d="M257.837,90.934,251.71,100.1s6.175,4.7,13.332-.825a10.728,10.728,0,0,0,3.586-10.583Z" transform="translate(-165.855 -68.374)"/><rect class="l" width="18.965" height="4.003" transform="translate(82.497 40.912)"/><rect class="m" width="18.965" height="4.003" transform="translate(82.497 47.52)"/><rect class="k" width="43.437" height="8.214" transform="translate(27.436 12.943)"/><rect class="e" width="12.546" height="8.214" transform="translate(58.323 12.943)"/><rect class="f" width="21.654" height="13.8" transform="translate(100.257 57.686)"/><rect class="d" width="2.937" height="2.937" transform="translate(104.528 65.756)"/><rect class="d" width="2.937" height="6.095" transform="translate(109.477 62.598)"/><rect class="d" width="2.937" height="8.214" transform="translate(114.702 60.479)"/><rect class="d" width="8.467" height="8.467" transform="translate(30.967 26.767)"/><rect class="d" width="8.467" height="8.467" transform="translate(30.967 39.674)"/><path class="n" d="M121.67,113.006l.8,1.691,2.4-2.657" transform="translate(-87.923 -82.368)"/><path class="n" d="M121.67,145.212l.8,1.691,2.4-2.653" transform="translate(-87.923 -101.671)"/><path class="o" d="M183.733,122.434c.276,0,.361.1.361.373v.589a2.689,2.689,0,0,1,2.212,1.667c.144.289.084.445-.24.589l-.589.264c-.276.132-.4.072-.565-.216a1.507,1.507,0,0,0-1.539-.926c-1.022,0-1.487.3-1.487.986a.91.91,0,0,0,.825.8,6.724,6.724,0,0,0,.866.132,5.633,5.633,0,0,1,1.6.313,2.183,2.183,0,0,1,.709.4,2.32,2.32,0,0,1,.637,1.683c0,1.31-.878,2.2-2.428,2.4v.625c0,.276-.084.373-.361.373h-.661c-.277,0-.373-.1-.373-.373v-.605a2.737,2.737,0,0,1-2.4-1.847.4.4,0,0,1,.276-.553l.589-.216c.3-.108.433-.036.565.264a1.563,1.563,0,0,0,1.6,1.01c1.106,0,1.659-.349,1.659-1.058a.737.737,0,0,0-.517-.745,4.092,4.092,0,0,0-1.2-.228,5.286,5.286,0,0,1-1.6-.349,2.26,2.26,0,0,1-.7-.4,2.192,2.192,0,0,1-.649-1.635c0-1.3.8-2.16,2.352-2.364V122.8c0-.276.1-.373.373-.373Z" transform="translate(-123.038 -88.594)"/><path class="b" d="M37.45,57.52v7.361h4.756l1.042,2.929,1.226-2.929h4.76V57.52Z" transform="translate(-37.45 -49.694)"/><path class="p" d="M48.3,65.329h0a.365.365,0,0,1-.276-.144l-1.242-1.6a.369.369,0,0,1,.581-.453l.978,1.258,2.4-2.6a.369.369,0,1,1,.541.5l-2.709,2.921A.365.365,0,0,1,48.3,65.329Z" transform="translate(-42.999 -52.178)"/></svg>