<svg xmlns="http://www.w3.org/2000/svg" width="123.106" height="91.92" viewBox="0 0 123.106 91.92"><defs><style>.a,.d{fill:#e6e6e6;}.b{fill:none;stroke:#c9c9c9;stroke-miterlimit:10;stroke-width:3px;}.c{opacity:0.08;}.d{opacity:0.45;}.e,.i,.q{fill:#fff;}.e{opacity:0.36;}.f{fill:#a5a5a5;}.g,.p{fill:#c9c9c9;}.h,.l,.m{fill:#536dfe;}.i{opacity:0.46;}.j{fill:#ffd200;}.k{fill:#24285b;}.l{opacity:0.58;}.m{opacity:0.73;}.n{fill:#f4a28c;}.o{fill:#ce8172;opacity:0.31;}.p{opacity:0.4;}</style></defs><rect class="a" width="93.884" height="62.222" transform="translate(8.099 6.521)"/><line class="b" y2="12.368" transform="translate(56.169 62.739)"/><circle class="b" cx="2.459" cy="2.459" r="2.459" transform="translate(53.711 75.107)"/><path class="c" d="M88.253,179.62s1.919,2.725,3.433,3.114l.656,5.562H88.913l-.66-3.913S85.1,182.1,88.253,179.62Z" transform="translate(-72.272 -121.922)"/><ellipse class="d" cx="60.018" cy="4.359" rx="60.018" ry="4.359" transform="translate(3.07 83.203)"/><rect class="e" width="61.84" height="28.128" transform="translate(16.641 22.592)"/><path class="c" d="M263.673,60.84a5.83,5.83,0,0,0-4.647,5.374c-.468,4.715,2.324,6.96,2.324,6.96s-12.724.937-11.412,6.652,2.53,14.8-3.092,14.055-12.181-8.59-12.181-8.59-3.71,2.552-.356,6.323c2.833,3.182,8.77,11.03,14.991,13.05A4.01,4.01,0,0,1,252,109.2l-1.323,7.2h11.206l4.123-30.062V65.559Z" transform="translate(-163.586 -47.659)"/><rect class="f" width="5.187" height="7.215" transform="translate(21.689 39.008)"/><rect class="g" width="5.187" height="12.181" transform="translate(29.619 34.042)"/><rect class="f" width="5.187" height="7.807" transform="translate(37.49 38.416)"/><rect class="f" width="5.187" height="18.177" transform="translate(68.129 28.045)"/><rect class="g" width="5.187" height="11.056" transform="translate(60.914 35.166)"/><rect class="f" width="5.187" height="15.085" transform="translate(53.441 31.137)"/><rect class="g" width="5.187" height="17.709" transform="translate(45.36 28.514)"/><path class="h" d="M268.529,90.256s-7.916-.592-7.687,5.865-1.1,18.537-7.342,16.165-11.746-7.829-11.746-7.829L240,105.979s13.923,19.984,25.077,9.4S268.529,90.256,268.529,90.256Z" transform="translate(-168.022 -66.041)"/><path class="i" d="M268.529,90.256s-7.916-.592-7.687,5.865-1.1,18.537-7.342,16.165-11.746-7.829-11.746-7.829L240,105.979s13.923,19.984,25.077,9.4S268.529,90.256,268.529,90.256Z" transform="translate(-168.022 -66.041)"/><path class="j" d="M311.853,68.095s-4.3,6.3,1.2,5.869,2.927-6.244,2.927-6.244Z" transform="translate(-211.946 -51.96)"/><path class="k" d="M311.853,68.095s-4.3,6.3,1.2,5.869,2.927-6.244,2.927-6.244Z" transform="translate(-211.946 -51.96)"/><rect class="g" width="93.884" height="9.291" transform="translate(8.099 6.521)"/><rect class="g" width="16.491" height="5.929" transform="translate(14.283 66.394)"/><path class="f" d="M83.559,218.64l-1.5,15.194h2.624L87.4,218.64Z" transform="translate(-69.276 -146.317)"/><path class="f" d="M123.5,218.64l1.5,15.194h-2.624L119.66,218.64Z" transform="translate(-92.784 -146.317)"/><path class="l" d="M94.161,180.608s-4.093-1.124-4.981-4.928c0,0,6.338-1.282,6.521,5.247Z" transform="translate(-73.728 -119.395)"/><path class="m" d="M101.509,173.314s-2.86-4.52-.345-8.744a7.274,7.274,0,0,1,2.68,8.755Z" transform="translate(-80.573 -112.512)"/><path class="h" d="M105.77,178.438s1.5-4.771,6.079-5.678c0,0,.855,3.1-2.957,5.693Z" transform="translate(-84.1 -117.633)"/><path class="k" d="M97.86,187.62l.828,5.678,5.225.019.768-5.667Z" transform="translate(-79.154 -126.923)"/><path class="n" d="M315.287,65.321a13.444,13.444,0,0,0-.247,3.579,1.087,1.087,0,0,0,1.226.933,2.4,2.4,0,0,0,2.073-1.57l.862-1.8a1.938,1.938,0,0,0-.6-2.159A2.075,2.075,0,0,0,315.287,65.321Z" transform="translate(-214.908 -49.527)"/><path class="n" d="M319.752,71.73l.281,7.076-3.913-.124,1.368-5.1Z" transform="translate(-215.613 -54.467)"/><path class="n" d="M321.29,72.26s.112-.825.727-.686.453,1.33-.4,1.342Z" transform="translate(-218.846 -54.36)"/><path class="n" d="M313.916,71.4l-.7.75a.349.349,0,0,0,.15.566l.8.251Z" transform="translate(-213.743 -54.261)"/><path class="o" d="M318.133,78.62a2.56,2.56,0,0,0,1.345-.6A4.045,4.045,0,0,1,317.71,80.4Z" transform="translate(-216.607 -58.4)"/><path class="h" d="M297.217,90.28s-17.24,9.37-9.19,18.188l3.935,10.213h12.368s11.4-21.3-3.2-28.278Z" transform="translate(-196.711 -66.065)"/><path class="c" d="M305.939,105.9s-4.906,4.066-.251,9.407-3.144,4.5-5.1.656l-2.687,8.4,1.574,4.089,12.087-.678,2.811-4.531,1.312-7.93Z" transform="translate(-204.222 -75.831)"/><rect class="j" width="8.107" height="11.802" transform="translate(91.353 36.311) rotate(7.59)"/><path class="c" d="M302.933,138.812s-2.837-.555-3.231,1.739a9.6,9.6,0,0,1-1.357,3.662l-.446.686,4.16.555Z" transform="translate(-204.222 -96.371)"/><path class="n" d="M310.362,144.484s-1.9-2.249-3.156-1.308,2.043,3.223,2.043,3.223Z" transform="translate(-209.863 -98.993)"/><path class="n" d="M238.666,125.519s-1.78-2.624-3.028-1.687,1.435,3.021,1.435,3.021Z" transform="translate(-165.088 -86.916)"/><path class="n" d="M324.29,200.571l6.986,19.845,1.413-.1-2.878-20.141Z" transform="translate(-220.721 -134.77)"/><path class="h" d="M339.444,252.686a2.531,2.531,0,0,1-1.409,1.473c-.974.274-.667,1.675.828,1.023a9.138,9.138,0,0,0,1.342-.716,2.624,2.624,0,0,1,1.319-.375.446.446,0,0,0,.375-.322c.266-.66-1.2-1.5-1.2-1.5Z" transform="translate(-228.964 -167.343)"/><path class="n" d="M301.1,198.11,299.66,219.1l1.338.465,5.329-19.635Z" transform="translate(-205.322 -133.482)"/><path class="h" d="M295.318,253.29a2.525,2.525,0,0,1-1.874.795c-1-.135-1.274,1.274.375,1.267a9.138,9.138,0,0,0,1.5-.127,2.623,2.623,0,0,1,1.364.169.435.435,0,0,0,.476-.146c.51-.5-.513-1.84-.513-1.84Z" transform="translate(-200.932 -167.981)"/><path class="k" d="M299.337,164.635l-1.657,17.113h19.114l-3.872-17.967Z" transform="translate(-204.084 -112.018)"/><path class="h" d="M314.527,100.583a4.072,4.072,0,0,1,6.652-3.827c1.522,1.3,2.766,3.051,4.089,6.712,4.078,11.27,3.092,29.185-13.758,13.436l1.522-2.133s7.975,6.5,8.62,1.439C322.12,112.674,315.6,106.018,314.527,100.583Z" transform="translate(-212.731 -69.499)"/><path class="i" d="M314.527,100.583a4.072,4.072,0,0,1,6.652-3.827c1.522,1.3,2.766,3.051,4.089,6.712,4.078,11.27,3.092,29.185-13.758,13.436l1.522-2.133s7.975,6.5,8.62,1.439C322.12,112.674,315.6,106.018,314.527,100.583Z" transform="translate(-212.731 -69.499)"/><path class="k" d="M313.356,59.214a2.5,2.5,0,0,0-.986,1.934,1.374,1.374,0,0,0,1.413,1.469c2.249.251,3.028.251,3.028.251s-2.511,6.184,1.923,5.745,2.747-4.186.813-7.559C317.8,58,315.5,57.5,313.356,59.214Z" transform="translate(-213.269 -46.033)"/><rect class="c" width="4.674" height="1.968" transform="translate(20.857 25.976)"/><rect class="c" width="4.674" height="1.968" transform="translate(20.857 29.083)"/><rect class="p" width="38.105" height="9.059" transform="translate(40.376 54.217)"/><rect class="j" width="23.657" height="20.317" transform="translate(0 0)"/><path class="q" d="M74.188,37.08c.3,0,.375.1.375.4v.637A2.923,2.923,0,0,1,77,39.936c.157.315.094.483-.259.641l-.641.285c-.3.146-.442.079-.615-.232a1.63,1.63,0,0,0-1.668-1c-1.124,0-1.619.326-1.619,1.068a.986.986,0,0,0,.9.873,7.656,7.656,0,0,0,.941.146,6.094,6.094,0,0,1,1.735.337,2.286,2.286,0,0,1,.75.42,2.5,2.5,0,0,1,.693,1.825c0,1.42-.952,2.387-2.623,2.624V47.6c0,.3-.094.4-.375.4h-.746c-.3,0-.4-.1-.4-.4v-.652a2.972,2.972,0,0,1-2.624-2.013c-.1-.285,0-.48.3-.6l.637-.232c.326-.12.472-.041.615.285a1.683,1.683,0,0,0,1.761,1.1c1.2,0,1.8-.375,1.8-1.151a.8.8,0,0,0-.558-.81,4.5,4.5,0,0,0-1.293-.247,5.734,5.734,0,0,1-1.75-.375,2.436,2.436,0,0,1-.75-.427,2.38,2.38,0,0,1-.7-1.776c0-1.409.884-2.346,2.556-2.571v-.637c0-.3.1-.4.4-.4Z" transform="translate(-61.989 -32.804)"/></svg>