<svg xmlns="http://www.w3.org/2000/svg" width="100.39" height="92.685" viewBox="0 0 100.39 92.685"><defs><style>.a,.g{fill:#e6e6e6;}.a{opacity:0.45;}.b,.d,.e{fill:#536dfe;}.c,.i,.j{fill:#a5a5a5;}.d{opacity:0.58;}.e{opacity:0.73;}.f{fill:#24285b;}.h{fill:#c9c9c9;}.i{opacity:0.39;}.j{opacity:0.13;}.k{fill:#ffd200;}.l{opacity:0.08;}.m,.n{fill:#fff;}.m{opacity:0.46;}.o{fill:#f4a28c;}.p{fill:#ce8172;opacity:0.31;}</style></defs><ellipse class="a" cx="47.749" cy="4.328" rx="47.749" ry="4.328" transform="translate(4.891 84.029)"/><path class="b" d="M153.46,255.432a2.2,2.2,0,0,1,.3,2.162c-.555,1.046.253,1.943,1.083,1.206S156,255,156,255l-1.887-1.09Z" transform="translate(-115.089 -170.231)"/><path class="b" d="M168.108,216.073a2.144,2.144,0,0,0,.569,2.106c.942.756.525,1.887-.528,1.533s-2.549-3.044-2.549-3.044l1.31-1.738Z" transform="translate(-122.711 -145.758)"/><path class="c" d="M209.6,217.766l-1.772-1.318,7.73-10.4V188.13h2.207v18.646Z" transform="translate(-149.224 -128.933)"/><rect class="c" width="2.203" height="13.968" transform="translate(66.099 77.502) rotate(-35.83)"/><path class="d" d="M269.056,248.705a4.9,4.9,0,0,1-3.316-3.279s4.22-.852,4.339,3.5Z" transform="translate(-185.581 -164.862)"/><path class="e" d="M274,243.8s-1.905-3.007-.231-5.821a4.845,4.845,0,0,1,1.783,5.828Z" transform="translate(-190.189 -160.23)"/><path class="b" d="M276.86,247.258s1.009-3.178,4.046-3.778c0,0,.569,2.062-1.969,3.785Z" transform="translate(-192.563 -163.683)"/><path class="f" d="M271.56,253.44l.551,3.774,3.476.015.514-3.77Z" transform="translate(-189.235 -169.936)"/><rect class="g" width="38.114" height="53.901" transform="translate(48.383 5.962)"/><rect class="h" width="38.114" height="7.242" transform="translate(48.383 56.678)"/><rect class="i" width="17.615" height="3.718" transform="translate(58.632 41.668)"/><rect class="j" width="17.615" height="3.718" transform="translate(58.632 47.805)"/><rect class="k" width="20.112" height="12.818" transform="translate(76.809 0)"/><rect class="f" width="2.728" height="2.728" transform="translate(80.776 7.496)"/><path class="b" d="M133,78.583s13.2-.919,12.133,15.036,16.9,15.065,16.9,15.065v3.684s-24.563,3.227-26.8-10.551A160.79,160.79,0,0,1,133,78.583Z" transform="translate(-102.243 -60.15)"/><path class="l" d="M194.7,165.517s1.422,4.031-3.789,4.589-1.117,4.239-4.745,8.307H179.93L179,165.13Z" transform="translate(-131.123 -114.493)"/><path class="m" d="M133,78.583s13.2-.919,12.133,15.036,16.9,15.065,16.9,15.065v3.684s-24.563,3.227-26.8-10.551A160.79,160.79,0,0,1,133,78.583Z" transform="translate(-102.243 -60.15)"/><rect class="f" width="2.728" height="5.661" transform="translate(85.373 4.567)"/><rect class="f" width="2.728" height="7.629" transform="translate(90.226 2.594)"/><circle class="n" cx="10.235" cy="10.235" r="10.235" transform="translate(57.207 15.367)"/><path class="k" d="M231.57,70.359V80.594l10.019-2.084S240.193,70.292,231.57,70.359Z" transform="translate(-164.128 -54.992)"/><path class="f" d="M221.971,94.344l-5.69,8.508s5.735,4.366,12.378-.767a9.984,9.984,0,0,0,3.35-9.825Z" transform="translate(-154.529 -68.743)"/><path class="o" d="M102.563,54.254a13.115,13.115,0,0,1,.339,3.476,1.057,1.057,0,0,1-1.165.938,2.33,2.33,0,0,1-2.058-1.489l-.893-1.708a1.887,1.887,0,0,1,.532-2.114A2.016,2.016,0,0,1,102.563,54.254Z" transform="translate(-80.682 -44.004)"/><path class="o" d="M99.48,62.75l.648,6.855,3.751-.625L101.9,64.242Z" transform="translate(-81.198 -50.215)"/><path class="f" d="M95.229,52.71h0a.2.2,0,0,0,.175.167,1.4,1.4,0,0,0,1.466-.837,1.749,1.749,0,0,0-.279-1.906,8.3,8.3,0,0,0,1.939-.149,1.894,1.894,0,0,0,.614-.22l.309-1.638s.629-1.686-.342-1.891-1.25.9-2.1.253-1.061-.912-1.779-.372.249,1.009-1.016,1.18-1.217.7-1.15,1.273a1.012,1.012,0,0,0,.331.491,6.45,6.45,0,0,1,1.835,3.647Z" transform="translate(-77.152 -39.591)"/><path class="o" d="M102.077,61.136s-.134-.8-.744-.648-.391,1.3.443,1.3Z" transform="translate(-82.143 -48.784)"/><path class="o" d="M109.438,60.11l.7.7a.335.335,0,0,1-.134.551l-.774.268Z" transform="translate(-87.32 -48.558)"/><path class="p" d="M104.033,67.842a3.189,3.189,0,0,1-1.563-.372,2.732,2.732,0,0,0,2.155,1.753Z" transform="translate(-83.076 -53.179)"/><path class="b" d="M67.719,93.143c-1.995-5.612-2.728-8.318,6.651-13.707,4.466-2.568,11.508-2.951,18.389-1.489,13.659,2.914,2.233,20.667,5.709,30.272l-15.493,5.806S72.069,105.347,67.719,93.143Z" transform="translate(-60.472 -59.224)"/><path class="f" d="M110.82,166.536s5.776,23.313,15.2,30.592l2.728-1.373s-10.246-16.193-6.375-24.336a36.848,36.848,0,0,0,1.392-3.5l2.546-7.187Z" transform="translate(-88.318 -111.73)"/><path class="l" d="M86.543,99.23s4.094,3.859,1.541,10.305a5.845,5.845,0,0,0,6.7,7.964c.138-.037.283-.074.428-.119,6.792-2.047,10.64-.063,10.64-.063s.112,4.053.692,4.8L91.05,127.924l-.372-.238-5.352-5.322a67.2,67.2,0,0,1-5.731-7.618C77.812,111.683,86.543,99.23,86.543,99.23Z" transform="translate(-68.563 -73.119)"/><path class="f" d="M139.4,160.73s18.631.491,13.789,11.3a65.357,65.357,0,0,1-5.836,10.421l-3.033-1.09s10.793-19.948-12.654-9.933Z" transform="translate(-101.408 -111.73)"/><path class="b" d="M67.955,93.463a6.94,6.94,0,0,0-10.48-.32c-4.838,5.136-11.005,15.054-3.878,27.8,7.354,13.152,27.023-4.049,27.023-4.049L78.7,112.9s-19.167,10.049-18.236,0C61.215,104.736,72.585,99.347,67.955,93.463Z" transform="translate(-50.359 -67.895)"/><path class="m" d="M67.955,93.463a6.94,6.94,0,0,0-10.48-.32c-4.838,5.136-11.005,15.054-3.878,27.8,7.354,13.152,27.023-4.049,27.023-4.049L78.7,112.9s-19.167,10.049-18.236,0C61.215,104.736,72.585,99.347,67.955,93.463Z" transform="translate(-50.359 -67.895)"/><path class="o" d="M128.1,149.984,132.994,148s2.449,3.35-3.565,4.738Z" transform="translate(-99.167 -103.738)"/><path class="k" d="M121.911,127.107l-.756-11.567-13.912,3.409,1.109,9.747L102,130.349l.376,1.545Z" transform="translate(-82.781 -83.358)"/><circle class="n" cx="1.433" cy="1.433" r="1.433" transform="translate(30.746 37.902)"/><path class="o" d="M211,162.161s2.367-.744,3.789.551S211,164.323,211,164.323Z" transform="translate(-151.214 -112.495)"/><path class="b" d="M90.993,75.9s-.305-2.307,4.265-2.866,6.7-1.362,7.265,1.224C102.53,74.259,100.587,78.021,90.993,75.9Z" transform="translate(-75.867 -56.313)"/><path class="m" d="M90.993,75.9s-.305-2.307,4.265-2.866,6.7-1.362,7.265,1.224C102.53,74.259,100.587,78.021,90.993,75.9Z" transform="translate(-75.867 -56.313)"/></svg>